<svg width="83" height="14" viewBox="0 0 83 14" fill="none" xmlns="http://www.w3.org/2000/svg">
<path d="M8.10547 2.12793H2.96387V5.42383H7.26172C7.66016 5.42383 7.95605 5.51465 8.14941 5.69629C8.34863 5.87207 8.44824 6.10938 8.44824 6.4082C8.44824 6.70703 8.34863 6.94434 8.14941 7.12012C7.9502 7.2959 7.6543 7.38379 7.26172 7.38379H2.96387V11.6289C2.96387 12.168 2.84082 12.5693 2.59473 12.833C2.35449 13.0908 2.04395 13.2197 1.66309 13.2197C1.27637 13.2197 0.959961 13.0879 0.713867 12.8242C0.473633 12.5605 0.353516 12.1621 0.353516 11.6289V1.71484C0.353516 1.33984 0.40918 1.03516 0.520508 0.800781C0.631836 0.560547 0.804688 0.387695 1.03906 0.282227C1.2793 0.170898 1.58398 0.115234 1.95312 0.115234H8.10547C8.52148 0.115234 8.8291 0.208984 9.02832 0.396484C9.2334 0.578125 9.33594 0.818359 9.33594 1.11719C9.33594 1.42188 9.2334 1.66797 9.02832 1.85547C8.8291 2.03711 8.52148 2.12793 8.10547 2.12793ZM19.417 8.3418C19.417 9.05664 19.3057 9.71582 19.083 10.3193C18.8604 10.9229 18.5381 11.4414 18.1162 11.875C17.6943 12.3086 17.1904 12.6426 16.6045 12.877C16.0186 13.1055 15.3594 13.2197 14.627 13.2197C13.9004 13.2197 13.2471 13.1025 12.667 12.8682C12.0869 12.6338 11.583 12.2998 11.1553 11.8662C10.7334 11.4268 10.4111 10.9111 10.1885 10.3193C9.97168 9.72168 9.86328 9.0625 9.86328 8.3418C9.86328 7.61523 9.97461 6.9502 10.1973 6.34668C10.4199 5.74316 10.7393 5.22754 11.1553 4.7998C11.5713 4.37207 12.0752 4.04395 12.667 3.81543C13.2588 3.58105 13.9121 3.46387 14.627 3.46387C15.3535 3.46387 16.0127 3.58105 16.6045 3.81543C17.1963 4.0498 17.7031 4.38379 18.125 4.81738C18.5469 5.25098 18.8662 5.7666 19.083 6.36426C19.3057 6.96191 19.417 7.62109 19.417 8.3418ZM17.0088 8.3418C17.0088 7.36328 16.792 6.60156 16.3584 6.05664C15.9307 5.51172 15.3535 5.23926 14.627 5.23926C14.1582 5.23926 13.7451 5.3623 13.3877 5.6084C13.0303 5.84863 12.7549 6.20605 12.5615 6.68066C12.3682 7.15527 12.2715 7.70898 12.2715 8.3418C12.2715 8.96875 12.3652 9.5166 12.5527 9.98535C12.7461 10.4541 13.0186 10.8145 13.3701 11.0664C13.7275 11.3125 14.1465 11.4355 14.627 11.4355C15.3535 11.4355 15.9307 11.1631 16.3584 10.6182C16.792 10.0674 17.0088 9.30859 17.0088 8.3418ZM23.6973 9.75684V11.7607C23.6973 12.2471 23.583 12.6133 23.3545 12.8594C23.126 13.0996 22.8359 13.2197 22.4844 13.2197C22.1387 13.2197 21.8545 13.0967 21.6318 12.8506C21.4092 12.6045 21.2979 12.2412 21.2979 11.7607V5.08105C21.2979 4.00293 21.6875 3.46387 22.4668 3.46387C22.8652 3.46387 23.1523 3.58984 23.3281 3.8418C23.5039 4.09375 23.6006 4.46582 23.6182 4.95801C23.9053 4.46582 24.1982 4.09375 24.4971 3.8418C24.8018 3.58984 25.2061 3.46387 25.71 3.46387C26.2139 3.46387 26.7031 3.58984 27.1777 3.8418C27.6523 4.09375 27.8896 4.42773 27.8896 4.84375C27.8896 5.13672 27.7871 5.37988 27.582 5.57324C27.3828 5.76074 27.166 5.85449 26.9316 5.85449C26.8438 5.85449 26.6299 5.80176 26.29 5.69629C25.9561 5.58496 25.6602 5.5293 25.4023 5.5293C25.0508 5.5293 24.7637 5.62305 24.541 5.81055C24.3184 5.99219 24.1455 6.26465 24.0225 6.62793C23.8994 6.99121 23.8145 7.4248 23.7676 7.92871C23.7207 8.42676 23.6973 9.03613 23.6973 9.75684ZM37.1885 8.51758V11.708C37.1885 12.2119 37.0742 12.5898 36.8457 12.8418C36.6172 13.0938 36.3154 13.2197 35.9404 13.2197C35.5771 13.2197 35.2812 13.0938 35.0527 12.8418C34.8301 12.5898 34.7188 12.2119 34.7188 11.708V7.88477C34.7188 7.28125 34.6982 6.8125 34.6572 6.47852C34.6162 6.14453 34.5049 5.87207 34.3232 5.66113C34.1416 5.44434 33.8545 5.33594 33.4619 5.33594C32.6768 5.33594 32.1582 5.60547 31.9062 6.14453C31.6602 6.68359 31.5371 7.45703 31.5371 8.46484V11.708C31.5371 12.2061 31.4229 12.584 31.1943 12.8418C30.9717 13.0938 30.6758 13.2197 30.3066 13.2197C29.9434 13.2197 29.6445 13.0938 29.4102 12.8418C29.1816 12.584 29.0674 12.2061 29.0674 11.708V4.84375C29.0674 4.39258 29.1699 4.0498 29.375 3.81543C29.5859 3.58105 29.8613 3.46387 30.2012 3.46387C30.5293 3.46387 30.8018 3.5752 31.0186 3.79785C31.2412 4.01465 31.3525 4.31641 31.3525 4.70312V4.93164C31.7686 4.43359 32.2139 4.06738 32.6885 3.83301C33.1631 3.59863 33.6904 3.48145 34.2705 3.48145C34.874 3.48145 35.3926 3.60156 35.8262 3.8418C36.2598 4.08203 36.6172 4.44531 36.8984 4.93164C37.3027 4.43945 37.7363 4.07617 38.1992 3.8418C38.6621 3.60156 39.1748 3.48145 39.7373 3.48145C40.3936 3.48145 40.959 3.61035 41.4336 3.86816C41.9082 4.12598 42.2627 4.49512 42.4971 4.97559C42.7021 5.40918 42.8047 6.0918 42.8047 7.02344V11.708C42.8047 12.2119 42.6904 12.5898 42.4619 12.8418C42.2334 13.0938 41.9316 13.2197 41.5566 13.2197C41.1934 13.2197 40.8945 13.0938 40.6602 12.8418C40.4316 12.584 40.3174 12.2061 40.3174 11.708V7.67383C40.3174 7.1582 40.2939 6.74512 40.2471 6.43457C40.2061 6.12402 40.0889 5.86328 39.8955 5.65234C39.7021 5.44141 39.4092 5.33594 39.0166 5.33594C38.7002 5.33594 38.3984 5.42969 38.1113 5.61719C37.8301 5.80469 37.6104 6.05664 37.4521 6.37305C37.2764 6.77734 37.1885 7.49219 37.1885 8.51758Z" fill="#6DB22F"/>
<path d="M46.918 0.115234H50.3193C51.2041 0.115234 51.9629 0.197266 52.5957 0.361328C53.2285 0.525391 53.8027 0.833008 54.3184 1.28418C55.6602 2.43262 56.3311 4.17871 56.3311 6.52246C56.3311 7.2959 56.2637 8.00195 56.1289 8.64062C55.9941 9.2793 55.7861 9.85645 55.5049 10.3721C55.2236 10.8818 54.8633 11.3389 54.4238 11.7432C54.0781 12.0537 53.7002 12.3027 53.29 12.4902C52.8799 12.6777 52.4375 12.8096 51.9629 12.8857C51.4941 12.9619 50.9639 13 50.3721 13H46.9707C46.4961 13 46.1387 12.9297 45.8984 12.7891C45.6582 12.6426 45.5 12.4404 45.4238 12.1826C45.3535 11.9189 45.3184 11.5791 45.3184 11.1631V1.71484C45.3184 1.15234 45.4443 0.745117 45.6963 0.493164C45.9482 0.241211 46.3555 0.115234 46.918 0.115234ZM47.9287 2.18066V10.9258H49.9062C50.3398 10.9258 50.6797 10.9141 50.9258 10.8906C51.1719 10.8672 51.4268 10.8086 51.6904 10.7148C51.9541 10.6211 52.1826 10.4893 52.376 10.3193C53.249 9.58105 53.6855 8.30957 53.6855 6.50488C53.6855 5.2334 53.4922 4.28125 53.1055 3.64844C52.7246 3.01562 52.2529 2.61426 51.6904 2.44434C51.1279 2.26855 50.4482 2.18066 49.6514 2.18066H47.9287ZM67.1152 2.12793H61.2354V5.29199H66.6494C67.0479 5.29199 67.3438 5.38281 67.5371 5.56445C67.7363 5.74023 67.8359 5.97461 67.8359 6.26758C67.8359 6.56055 67.7393 6.80078 67.5459 6.98828C67.3525 7.16992 67.0537 7.26074 66.6494 7.26074H61.2354V10.9258H67.3174C67.7275 10.9258 68.0352 11.0225 68.2402 11.2158C68.4512 11.4033 68.5566 11.6553 68.5566 11.9717C68.5566 12.2764 68.4512 12.5254 68.2402 12.7188C68.0352 12.9062 67.7275 13 67.3174 13H60.2246C59.6562 13 59.2461 12.874 58.9941 12.6221C58.748 12.3701 58.625 11.9629 58.625 11.4004V1.71484C58.625 1.33984 58.6807 1.03516 58.792 0.800781C58.9033 0.560547 59.0762 0.387695 59.3105 0.282227C59.5508 0.170898 59.8555 0.115234 60.2246 0.115234H67.1152C67.5312 0.115234 67.8389 0.208984 68.0381 0.396484C68.2432 0.578125 68.3457 0.818359 68.3457 1.11719C68.3457 1.42188 68.2432 1.66797 68.0381 1.85547C67.8389 2.03711 67.5312 2.12793 67.1152 2.12793ZM74.9814 11.0576L72.916 2.84863V11.7432C72.916 12.2354 72.8047 12.6045 72.582 12.8506C72.3652 13.0967 72.0752 13.2197 71.7119 13.2197C71.3604 13.2197 71.0732 13.0996 70.8506 12.8594C70.6279 12.6133 70.5166 12.2412 70.5166 11.7432V1.54785C70.5166 0.985352 70.6631 0.607422 70.9561 0.414062C71.249 0.214844 71.6445 0.115234 72.1426 0.115234H72.9512C73.4375 0.115234 73.7891 0.15918 74.0059 0.24707C74.2285 0.334961 74.3926 0.493164 74.498 0.72168C74.6035 0.950195 74.7236 1.32227 74.8584 1.83789L76.7305 8.89551L78.6025 1.83789C78.7373 1.32227 78.8574 0.950195 78.9629 0.72168C79.0684 0.493164 79.2295 0.334961 79.4463 0.24707C79.6689 0.15918 80.0234 0.115234 80.5098 0.115234H81.3184C81.8164 0.115234 82.2119 0.214844 82.5049 0.414062C82.7979 0.607422 82.9443 0.985352 82.9443 1.54785V11.7432C82.9443 12.2354 82.833 12.6045 82.6104 12.8506C82.3936 13.0967 82.1006 13.2197 81.7314 13.2197C81.3857 13.2197 81.1016 13.0967 80.8789 12.8506C80.6562 12.6045 80.5449 12.2354 80.5449 11.7432V2.84863L78.4795 11.0576C78.3447 11.5908 78.2334 11.9834 78.1455 12.2354C78.0635 12.4814 77.9082 12.707 77.6797 12.9121C77.4512 13.1172 77.1348 13.2197 76.7305 13.2197C76.4258 13.2197 76.168 13.1523 75.957 13.0176C75.7461 12.8887 75.582 12.7217 75.4648 12.5166C75.3477 12.3115 75.2539 12.0859 75.1836 11.8398C75.1191 11.5879 75.0518 11.3271 74.9814 11.0576Z" fill="#004090"/>
</svg>
